<?xml version="1.0" encoding="utf-8"?>
<!-- Generator: Adobe Illustrator 18.0.0, SVG Export Plug-In . SVG Version: 6.00 Build 0)  -->
<!DOCTYPE svg PUBLIC "-//W3C//DTD SVG 1.1//EN" "http://www.w3.org/Graphics/SVG/1.1/DTD/svg11.dtd">
<svg version="1.1" id="Layer_1" xmlns="http://www.w3.org/2000/svg" xmlns:xlink="http://www.w3.org/1999/xlink" x="0px" y="0px"
	 viewBox="129.5 585.9 431 142" enable-background="new 129.5 585.9 431 142" xml:space="preserve">
<g>
	<g>
		<g>
			<g>
				<path fill="#FFEDE5" d="M195.4,611.2c0,1.3-0.4,2.4-1.3,3.3c-0.9,0.9-2,1.4-3.3,1.4c-0.7,0-2.1-0.3-4.2-0.9
					c-2-0.6-3.7-0.9-5.1-0.9c-3.6,0-6.5,0-8.6,0c-1.2,0-1.9,0.1-2.1,0.3s-0.3,0.9-0.4,2.2c-0.3,1.8-0.8,4.6-1.5,8.3
					c-1.6,10.1-2.4,21.4-2.4,34.1c0,8.6,1.1,14.5,3.4,17.6v3c-1.6,0.7-2.8,1.1-3.8,1.1c-5.3,0-8.8-2.3-10.4-6.9
					c-0.7-2.2-1.1-6.5-1.1-12.8c0-7.3,0.2-13,0.5-17.1c0.1-1.8,0.5-6,1.4-12.8c0.7-5.3,1-9.5,1-12.8v-3.2c-1.2,0.1-3.4,0.3-6.8,0.8
					c-2.8,0.4-5,0.6-6.8,0.6c-5.8,0-8.7-1.5-8.7-4.5c0-1.3,0.4-2,1.3-2.2c1.2-1.6,7.8-3,19.6-4.2c9.2-0.9,16.6-1.3,22.3-1.3
					c4,0,7.5,0.4,10.5,1.3C193.2,606.7,195.4,608.6,195.4,611.2z"/>
				<path fill="#FFEDE5" d="M349.6,606.9c0,1-0.4,1.9-1.1,2.6c-1.3,1.3-1.9,1.9-2,2c-0.5,0.7-1,2.7-1.5,5.8
					c-2.1,15.1-3.1,30-3.1,44.7c0,8.3,1.7,12.9,5,14v3c-1,1.8-2.5,2.8-4.6,2.8c-4.2,0-7.5-3.3-9.6-9.9c-1.6-4.7-2.4-9.5-2.4-14.6
					c0-11.2,0.3-20.5,1-28c-2.5,8.7-5,17.3-7.6,26.1c-4.7,13.5-9.1,20.2-13.5,20.2c-4.9,0-9.2-4-13-11.9
					c-3.5-7.2-7.8-19.2-12.8-36.2c-0.5,5-0.7,10.2-0.7,15.4c0,10.9,0.3,18.8,1,23.6c0.1,0.9,0.5,2.3,1.4,4.3c0.8,2,1.3,3.5,1.3,4.6
					c0,2.4-2.3,3.7-6.9,3.7c-5.4,0-8.1-6.5-8.1-19.4c0-5.3,0.3-13.1,1-23.5c0.7-10.4,1-18.2,1-23.4c0-0.6-0.3-1.2-1-1.9
					c-0.7-0.7-1-1.3-1-1.9c0-4.1,4.2-6.2,12.5-6.2c1.9,0,4.2,1.1,6.9,3.2c0.3,2.3,0.7,5.8,1.3,10.4c0.8,6.5,2.8,15.1,5.9,25.9
					c4.1,13.8,7.6,20.8,10.6,20.8c0.7,0,1.5-1.1,2.6-3.4c2.1-4.4,4.1-10.7,6.1-18.7c1.5-6.4,3-12.9,4.5-19.3c0.7-3,1.9-7.4,3.6-13.1
					c1.8-4.2,5.4-6.3,11-6.3c2,0,4.4,0.4,7.2,1.2C347.9,604.2,349.6,605.5,349.6,606.9z"/>
				<path fill="#FFEDE5" d="M424,659c0,3.6-1.8,5.4-5.4,5.4c0.4,1.7,1.3,4,2.8,6.9c-0.1,1.6-0.8,3-2.3,4c-1.4,1-3.1,1.6-5,1.6
					c-1.5,0-3.2-0.4-5.3-1.2c-1.1-1.9-1.6-4.2-1.6-6.9c0-0.7,0-1.6,0.1-2.9c0.1-1.3,0.1-2.2,0.1-2.8c0,0.5-1.4,0.8-4.1,0.8
					c-4.7,0-10.2,0.2-16.6,0.6c-9.2,0.4-14.1,1.1-14.9,1.9c-0.8,0.8-1.3,4.8-1.6,11.9c-1.1,1.4-2.5,2.1-4.1,2.1
					c-1.8,0-3.5-0.7-5.4-1.9c-1.8-1.3-2.8-2.7-2.8-4.2c0-0.5,0.8-2.6,2.3-6.2c1.7-5.3,4.4-13.1,8.1-23.6
					c11.2-27.1,20.5-40.7,27.9-40.7c7.2,0,12.8,7.2,16.8,21.5c1.8,6.4,3.4,16.3,4.9,29.6c2.2,0.4,3.5,0.8,4.1,1.1
					C423.3,656.6,424,657.6,424,659z M406.5,654.8c-3.7-25.8-7-38.7-9.9-38.7c-2.3,0-6.4,6.1-12.3,18.2c-4.2,8.7-7.5,16.3-9.9,22.7
					c2.7-0.5,6.6-1.1,11.9-1.9C391.1,654.6,397.8,654.5,406.5,654.8z"/>
				<path fill="#FFEDE5" d="M483.9,611.2c0,1.3-0.4,2.4-1.3,3.3c-0.9,0.9-2,1.4-3.3,1.4c-0.7,0-2.1-0.3-4.2-0.9
					c-2-0.6-3.7-0.9-5.1-0.9c-3.6,0-6.5,0-8.6,0c-1.2,0-1.9,0.1-2.1,0.3s-0.3,0.9-0.4,2.2c-0.3,1.8-0.8,4.6-1.5,8.3
					c-1.6,10.1-2.4,21.4-2.4,34.1c0,8.6,1.1,14.5,3.4,17.6v3c-1.6,0.7-2.8,1.1-3.8,1.1c-5.3,0-8.8-2.3-10.4-6.9
					c-0.7-2.2-1.1-6.5-1.1-12.8c0-7.3,0.2-13,0.5-17.1c0.1-1.8,0.5-6,1.4-12.8c0.7-5.3,1-9.5,1-12.8v-3.2c-1.2,0.1-3.4,0.3-6.8,0.8
					c-2.8,0.4-5,0.6-6.8,0.6c-5.8,0-8.7-1.5-8.7-4.5c0-1.3,0.4-2,1.3-2.2c1.2-1.6,7.8-3,19.6-4.2c9.2-0.9,16.6-1.3,22.3-1.3
					c4,0,7.5,0.4,10.5,1.3C481.7,606.7,483.9,608.6,483.9,611.2z"/>
				<path fill="#FFEDE5" d="M551,641.2c0,10.7-3,19.7-8.9,27.1c-6.6,8.4-15.6,12.5-27.1,12.5c-3.2,0-6.7-0.6-10.5-1.7
					c-8.3-2.4-14.3-6.5-17.9-12.3c-3.1-5-4.6-11.8-4.6-20.2c0-10.9,3-20.6,8.9-29c6.8-9.8,16.1-14.8,27.8-14.8
					c10.2,0,18.4,4.3,24.5,12.8C548.4,623,551,631.5,551,641.2z M539,640.2c0-15.4-5.6-24.6-16.8-27.6c-1.2-0.3-2.5-0.4-4-0.4
					c-4.7,0-9.3,1.8-14,5.5c-7.4,6-11.1,16.7-11.1,32.1c0,1.4,0.3,3.4,1,5.9c1.4,5.7,3.5,9.8,6.4,12.3c3.2,3,8,4.4,14.3,4.4
					c8.5,0,14.9-3.7,19.3-11C537.3,655.6,539,648.5,539,640.2z"/>
			</g>
			<path fill="#FFEDE5" d="M513.6,643.5L513.6,643.5c-2.2-0.3-3.7-2.3-3.4-4.5l1.6-11.6c0.3-2.2,2.3-3.7,4.5-3.4l0,0
				c2.2,0.3,3.7,2.3,3.4,4.5l-1.6,11.6C517.8,642.2,515.8,643.8,513.6,643.5z"/>
			<path fill="#FFEDE5" d="M529.8,658.8L529.8,658.8c-1.7,1.4-4.2,1.1-5.6-0.6l-13.1-16.1c-1.4-1.7-1.1-4.2,0.6-5.6h0
				c1.7-1.4,4.2-1.1,5.6,0.6l13.1,16.1C531.7,654.9,531.5,657.5,529.8,658.8z"/>
			<g>
				<path fill="#FFEDE5" d="M437.5,694.2c-0.6,0-1.3,0-2,0c-0.7,0-1.4,0-2.1,0.1c-0.7,0-1.4,0.1-2,0.1c-0.7,0.1-1.2,0.1-1.8,0.2
					c0.1-0.4,0.2-0.8,0.2-1.2c0-0.3-0.1-0.7-0.2-1.2c1.6,0,3.2,0.1,4.8,0.1c1.6,0,3.2,0.1,4.8,0.1c1.6,0,3.2,0,4.8-0.1
					c1.6,0,3.2-0.1,4.8-0.1c-0.1,0.5-0.2,0.9-0.2,1.2c0,0.3,0.1,0.7,0.2,1.2c-0.5-0.1-1.1-0.1-1.8-0.2c-0.7,0-1.3-0.1-2-0.1
					c-0.7,0-1.4-0.1-2.1-0.1c-0.7,0-1.4,0-2,0c-0.1,2.6-0.1,5.1-0.1,7.7v6.4c0,1.6,0,3.2,0.1,4.8c0.1,1.6,0.1,3.1,0.2,4.7
					c-0.6-0.1-1.2-0.1-1.8-0.1c-0.6,0-1.3,0-1.8,0.1c0.1-1.5,0.1-3.1,0.2-4.7c0.1-1.6,0.1-3.2,0.1-4.8v-6.4
					C437.6,699.4,437.6,696.8,437.5,694.2z"/>
				<path fill="#FFEDE5" d="M453,697.1c-0.1-1.6-0.1-3.2-0.2-4.8c0.3,0,0.6,0.1,0.9,0.1c0.3,0,0.6,0.1,0.9,0.1s0.6,0,0.9-0.1
					c0.3,0,0.6-0.1,0.9-0.1c-0.1,1.6-0.1,3.2-0.2,4.8c-0.1,1.6-0.1,3.2-0.1,4.8v6.4c0,1.6,0,3.2,0.1,4.8c0.1,1.6,0.1,3.1,0.2,4.7
					c-0.6-0.1-1.2-0.1-1.8-0.1c-0.6,0-1.3,0-1.8,0.1c0.1-1.5,0.1-3.1,0.2-4.7c0.1-1.6,0.1-3.2,0.1-4.8v-6.4
					C453.1,700.3,453.1,698.7,453,697.1z"/>
				<path fill="#FFEDE5" d="M471,702.1c1.7,3.3,3.6,6.7,5.5,10.2c0.2-0.5,0.6-1.1,1.1-2c0.5-0.9,1-1.9,1.6-3c0.6-1.1,1.3-2.4,2-3.7
					c0.7-1.3,1.4-2.7,2.2-4c0.7-1.4,1.5-2.7,2.2-4c0.7-1.3,1.4-2.5,2-3.7h0.5c0.3,2.4,0.5,4.7,0.8,6.9c0.2,2.2,0.5,4.4,0.7,6.5
					c0.2,2.1,0.5,4.3,0.7,6.4c0.2,2.1,0.5,4.2,0.8,6.2c-0.3-0.1-0.6-0.1-0.9-0.1c-0.3,0-0.6,0-0.9,0c-0.3,0-0.6,0-0.9,0
					s-0.6,0-0.9,0.1c-0.3-3.3-0.5-6.5-0.8-9.6c-0.3-3.1-0.6-6.3-1-9.5h-0.1c-1.7,3.1-3.4,6.2-5,9.3c-1.6,3.1-3.2,6.3-4.7,9.7h-0.3
					c-1.5-3.1-3-6.2-4.7-9.4c-1.6-3.1-3.2-6.3-4.9-9.6H466c-0.2,1.5-0.4,3.2-0.6,5c-0.2,1.8-0.4,3.6-0.6,5.3
					c-0.2,1.7-0.3,3.4-0.4,4.9c-0.1,1.5-0.2,2.8-0.2,3.8c-0.4-0.1-0.8-0.1-1.3-0.1c-0.5,0-0.9,0-1.3,0.1c0.3-2,0.7-4.1,1-6.4
					c0.3-2.2,0.7-4.5,1-6.7c0.3-2.3,0.6-4.5,0.9-6.7c0.3-2.2,0.5-4.3,0.7-6.3h0.6C467.5,695.3,469.3,698.8,471,702.1z"/>
				<path fill="#FFEDE5" d="M496.4,697.1c-0.1-1.6-0.1-3.2-0.2-4.8c1.1,0,2.2,0.1,3.3,0.1c1.1,0,2.2,0.1,3.3,0.1
					c1.1,0,2.2,0,3.3-0.1c1.1,0,2.2-0.1,3.3-0.1c-0.1,0.4-0.1,0.7-0.1,1.1s0,0.7,0.1,1.1c-0.8,0-1.5-0.1-2.2-0.1
					c-0.7,0-1.4-0.1-2.1-0.1c-0.7-0.1-1.5-0.1-2.4-0.1c-0.9,0-1.9-0.1-3.1-0.1c0,0.8-0.1,1.5-0.1,2.3c0,0.7-0.1,1.5-0.1,2.5
					c0,1,0,1.9,0,2.8c0,0.9,0,1.6,0,2.1c1.1,0,2.1,0,2.9,0c0.9,0,1.7-0.1,2.4-0.1c0.7,0,1.4-0.1,2-0.1c0.6,0,1.2-0.1,1.7-0.1
					c-0.1,0.4-0.1,0.8-0.1,1.2c0,0.4,0,0.7,0.1,1.1c-0.6-0.1-1.4-0.1-2.2-0.2c-0.9,0-1.7-0.1-2.6-0.1c-0.9,0-1.7,0-2.4,0
					s-1.4,0-1.8,0c0,0.2,0,0.5,0,0.7c0,0.3,0,0.6,0,1v1.4v2.2c0,1.4,0,2.6,0,3.5c0,0.9,0,1.6,0.1,2.1c0.8,0,1.7,0,2.6,0
					c0.9,0,1.9,0,2.8-0.1c0.9,0,1.8-0.1,2.6-0.1c0.8-0.1,1.5-0.2,2.1-0.3c0,0.2-0.1,0.4-0.1,0.6c0,0.2,0,0.4,0,0.6
					c0,0.4,0,0.7,0.1,1c-1.1-0.1-2.2-0.1-3.3-0.1c-1.1,0-2.2,0-3.4,0s-2.3,0-3.4,0c-1.1,0-2.2,0-3.4,0.1c0.1-1.6,0.1-3.2,0.2-4.7
					c0.1-1.6,0.1-3.2,0.1-4.8v-6.4C496.5,700.3,496.4,698.6,496.4,697.1z"/>
				<path fill="#FFEDE5" d="M515,701.9c0-1.6,0-3.2-0.1-4.8c-0.1-1.6-0.1-3.2-0.2-4.8c0.7,0,1.4,0.1,2.1,0.1c0.7,0,1.4,0.1,2.1,0.1
					c0.7,0,1.4,0,2.1-0.1c0.7-0.1,1.4-0.1,2.1-0.1c1,0,2,0.1,3,0.3c0.9,0.2,1.8,0.5,2.5,1c0.7,0.5,1.3,1.1,1.7,1.8
					c0.4,0.7,0.6,1.7,0.6,2.8c0,1.2-0.3,2.2-0.8,3.1c-0.5,0.9-1.2,1.6-1.9,2.1c-0.8,0.6-1.6,1-2.5,1.3c-0.9,0.3-1.7,0.5-2.4,0.6
					c0.3,0.4,0.7,0.9,1.2,1.6c0.5,0.7,1.1,1.4,1.7,2.2c0.6,0.8,1.3,1.6,2,2.5c0.7,0.9,1.4,1.7,2,2.5c0.6,0.8,1.2,1.5,1.8,2.2
					c0.6,0.7,1,1.2,1.4,1.5c-0.4-0.1-0.7-0.1-1.1-0.1c-0.4,0-0.7,0-1.1,0c-0.3,0-0.7,0-1.1,0c-0.4,0-0.7,0-1.1,0.1
					c-0.4-0.5-0.9-1.3-1.7-2.3s-1.6-2.2-2.5-3.3c-0.9-1.2-1.9-2.4-2.8-3.5c-1-1.2-1.8-2.2-2.6-3h-1.4v2.7c0,1.6,0,3.2,0.1,4.8
					c0.1,1.6,0.1,3.1,0.2,4.7c-0.6-0.1-1.2-0.1-1.8-0.1c-0.6,0-1.3,0-1.8,0.1c0.1-1.5,0.1-3.1,0.2-4.7c0.1-1.6,0.1-3.2,0.1-4.8
					V701.9z M518.1,704c0.3,0.1,0.7,0.1,1.1,0.1c0.4,0,0.9,0,1.4,0c0.8,0,1.6-0.1,2.4-0.3c0.8-0.2,1.6-0.5,2.3-0.9
					c0.7-0.4,1.3-1,1.7-1.7c0.5-0.7,0.7-1.7,0.7-2.8c0-1-0.2-1.8-0.5-2.4c-0.4-0.6-0.8-1.1-1.4-1.5c-0.6-0.4-1.2-0.6-1.9-0.8
					c-0.7-0.1-1.3-0.2-2-0.2c-0.9,0-1.6,0-2.2,0.1c-0.6,0-1.1,0.1-1.4,0.1c-0.1,1.4-0.1,2.7-0.2,4c0,1.3-0.1,2.7-0.1,4V704z"/>
				<path fill="#FFEDE5" d="M537.7,714.4c0.3,0.5,0.7,0.9,1.2,1.2c0.5,0.4,1,0.7,1.7,0.9c0.6,0.2,1.4,0.4,2.2,0.4
					c0.8,0,1.6-0.1,2.2-0.4c0.7-0.3,1.2-0.7,1.7-1.2c0.5-0.5,0.8-1.1,1.1-1.7c0.2-0.7,0.4-1.4,0.4-2.1c0-1.1-0.3-2-0.9-2.7
					c-0.6-0.7-1.3-1.2-2.2-1.7c-0.9-0.4-1.8-0.9-2.8-1.2c-1-0.4-1.9-0.8-2.8-1.4c-0.9-0.6-1.6-1.3-2.2-2.1c-0.6-0.9-0.9-2-0.9-3.5
					c0-1,0.2-2,0.6-2.8c0.4-0.9,0.9-1.6,1.6-2.2c0.7-0.6,1.6-1.1,2.5-1.4c1-0.3,2.1-0.5,3.3-0.5c1.2,0,2.2,0.1,3.1,0.4
					c0.9,0.3,1.7,0.7,2.4,1.3c-0.2,0.4-0.4,0.9-0.6,1.3s-0.3,1.1-0.4,1.8h-0.4c-0.1-0.3-0.3-0.7-0.5-1.1c-0.2-0.4-0.5-0.8-0.9-1.1
					c-0.4-0.3-0.8-0.6-1.3-0.9c-0.5-0.2-1.1-0.4-1.8-0.4c-0.7,0-1.3,0.1-1.9,0.3c-0.6,0.2-1.1,0.5-1.5,0.9c-0.4,0.4-0.8,0.9-1,1.5
					c-0.2,0.6-0.4,1.2-0.4,1.9c0,1.2,0.3,2.1,0.9,2.8c0.6,0.7,1.3,1.2,2.2,1.7c0.9,0.5,1.8,0.9,2.8,1.2c1,0.4,1.9,0.8,2.8,1.3
					c0.9,0.5,1.6,1.2,2.2,2c0.6,0.8,0.9,1.9,0.9,3.3c0,1.1-0.2,2.2-0.6,3.2c-0.4,1-1,1.9-1.8,2.7c-0.8,0.8-1.7,1.3-2.9,1.7
					c-1.1,0.4-2.4,0.6-3.8,0.6c-1.5,0-2.8-0.2-3.7-0.6c-1-0.4-1.8-0.9-2.4-1.4c0.2-0.6,0.4-1.1,0.5-1.5c0.1-0.5,0.2-1,0.2-1.8h0.4
					C537.1,713.4,537.4,713.9,537.7,714.4z"/>
			</g>
			<g>
				<path fill="#FFEDE5" d="M252.3,634.1c-2.7-8.8-8.1-13.7-13.4-16.4c-1.1,0.5-2.1,0.9-2.1,0.9c3.1,1.3,3.8,4.8,3.8,4.8
					c-6.9,1.4-11.8-1.4-11.8-1.4c0.9,2.5-0.7,5.2-0.7,5.2c-6-0.6-8.8-6.6-8.8-6.6c-3.3-0.2-7,5.1-7,5.1c-3.9-2.5-2.2-6.7-2.2-6.7
					c-3.1-0.2-4.8-1.4-5.6-2.1c-11.1,5.8-16.8,18.2-14.6,28.6c0.2,0.9,0.4,1.8,0.7,2.7c1.7,0.6,5.1,1.7,9.3,1.5l0.2,1.8
					c0,0-4,0.4-8.6-0.8c4,9.9,13.4,17.6,25.8,19.3c-0.1-1.2-0.8-2.8-3.1-4.5l1.2-1.6c0,0,3.6,1.8,4.3,6.3c3,0.2,6.3,0.1,9.6-0.3
					C250,666.8,258.6,654.7,252.3,634.1z"/>
				<circle fill="#C95B5E" cx="246.5" cy="639.9" r="2.7"/>
				<circle fill="#C95B5E" cx="212.7" cy="642.5" r="2.7"/>
				<path fill="#FFEDE5" d="M235.5,619.5c-1.8-0.8-3.9-3-3.9-3s1.7,0.4,4,0c2.3-0.4,3.7-2.6,3.7-2.6s-1.9,0.5-4.4,0.5s-5.7-1-5.7-1
					c1.3-2.5,5.4-3.9,5.4-3.9s-1.8-0.7-4.9-0.2c-2.2,0.3-4.4,1.8-5.5,2.6c0.1-1.1,0.3-2.7,0.3-4.6c0-3.6-0.9-5.7-0.9-5.7
					c-2.5-0.4-4.3,1.9-4.3,1.9s1.1,0.8,1.8,2.8c0.5,1.2,0.8,3.6,0.9,5.2c-5.3-3.2-11.2-3.1-11.2-3.1c2.3,1.1,3.3,5.3,3.3,5.3
					c-3.1,1.1-10.6,0-10.6,0s0.1,0.7,2.8,2.7c2.7,2.1,7.1,0.5,7.1,0.5s-1,0.8-1.8,3.3c-0.8,2.5,0.5,3.7,0.5,3.6c0-0.1,1.1-2.1,3-3.6
					c2-1.5,5-2,5-2c1.3,6.2,7.1,7.2,7.1,7.2s0.2-1.3,0.1-2.5c-0.1-1.2-1.7-5.1-1.7-5.1s2.7,2.7,5.6,3.5c2.9,0.8,7.5,1,7.5,1
					S237.4,620.3,235.5,619.5z"/>
				<path fill="#FFEDE5" d="M199.2,650.7l0-0.4c-5.4,0.3-11.3-2.1-14-3.5c0-0.2,0.1-0.3,0.1-0.5c0-1-0.8-1.9-1.9-1.9
					c-1,0-1.9,0.8-1.9,1.9s0.8,1.9,1.9,1.9c0.7,0,1.3-0.4,1.6-1c2.6,1.2,8,3.5,13.1,3.5C198.6,650.8,198.9,650.7,199.2,650.7z"/>
				<path fill="#FFEDE5" d="M217.8,673.1c2.3-5.2-2.3-8-2.3-8l-0.2,0.4c0,0,1.1,0.6,1.9,1.9c1.1,1.7,1.2,3.5,0.2,5.6
					c-1.8,4.1-4.4,5.7-5.2,6.1c-0.2,0-0.4,0-0.5,0.1c-0.4,0.2,0,1.7,1.8,3c1.8,1.3,3.5,0.8,3.9-0.9s-3.7-2.1-3.7-2.1s-0.3,0-0.7-0.1
					C214.3,678.3,216.3,676.6,217.8,673.1z"/>
				<path fill="#FFEDE5" d="M252.1,677.9c-1.3-0.6-2.6-0.2-3.4,0.1c-0.1-1.5-0.3-5.2-1-7.7c-0.9-3.2-4.4-6.5-4.5-6.7l-0.3,0.3
					c0,0,3.6,3.3,4.4,6.5c0.7,2.6,0.9,6.5,1,7.8c-0.2,0.1-0.2,0.1-0.2,0.1c-1,1,3.6,2.3,4.6,2.1C253.6,680.3,254,678.8,252.1,677.9z
					"/>
				<path fill="#FFEDE5" d="M264.5,637.6c-1,0-1.9,0.8-1.9,1.9c0,0.7,0.4,1.3,0.9,1.6c-1.5,2-5.3,6.4-10,6.8l0,0.4
					c3.3-0.3,6.2-2.5,8-4.2c1.1-1,1.9-2.1,2.4-2.8c0.2,0,0.3,0.1,0.5,0.1c1,0,1.9-0.8,1.9-1.9C266.4,638.5,265.5,637.6,264.5,637.6z
					"/>
				<g>
					<path fill="#C95B5E" d="M232.9,647.2C232.8,647.2,232.8,647.2,232.9,647.2c-1.3,0-2-0.6-2.3-1.1c-0.4-0.5-0.5-1-0.5-1l0.4-0.1
						c0,0.1,0.4,1.7,2.4,1.8c0.8,0,1.4-0.3,1.8-1c0.3-0.5,0.4-1.1,0.4-1.1l0.4,0.1C235.5,644.8,235.1,647.2,232.9,647.2z"/>
				</g>
				<path fill="#F2D4C7" d="M229.3,651.3l9-0.2c0,0-2.4,3.8-2.5,3.8c-0.1,0-3.3,0.5-3.3,0.5L229.3,651.3z"/>
				<path fill="#C95B5E" d="M237.7,651l-2.9,3.9c0.6-0.1,1.1-0.2,1.1-0.2c0.1,0,2.5-3.8,2.5-3.8L237.7,651z"/>
				<polygon fill="#C95B5E" points="231.3,653.6 232.3,654.9 235.5,651.1 233.5,651.2 				"/>
				<path fill="#F2D4C7" d="M231.9,654.4c0,0,3.8-0.6,4.2-0.5c0.4,0,1.5,2.5,2.1,4.6c0.6,2.1,1.2,7.8,1.1,8.2
					c-0.1,0.4-5.8,5.8-6.1,5.8c-0.3,0-5.9-4.4-5.9-4.6s3.1-6,4.1-8.6C232.3,656.6,231.9,654.4,231.9,654.4z"/>
				<path fill="#C95B5E" d="M236.8,654.8c-0.3-0.6-0.6-1-0.7-1c-0.4,0-4.2,0.5-4.2,0.5s0.4,2.1-0.5,4.6
					C232.9,657.9,235.3,656.1,236.8,654.8z"/>
				<path fill="#C95B5E" d="M230.2,661.8c-0.8,1.8-1.9,3.7-2.5,4.9c2.7-1.8,8.6-5.7,10.5-7.7c0-0.2-0.1-0.4-0.1-0.6
					c-0.2-0.8-0.5-1.7-0.8-2.5C235.9,657.3,232.8,660.1,230.2,661.8z"/>
				<path fill="#C95B5E" d="M231.3,671.1c1.7-1,5.9-3.8,7.8-6.4c-0.1-1.2-0.3-2.6-0.5-3.9c-2.2,2.1-7.2,6.7-10.3,8
					C229.2,669.5,230.3,670.4,231.3,671.1z"/>
			</g>
		</g>
	</g>
	<path fill="#FFEDE5" d="M529.6,599.1l-12.2-0.9c-0.6,0-1-0.6-1-1.1l0.4-4.7c0-0.6,0.6-1,1.1-1l12.2,0.9c0.6,0,1,0.6,1,1.1l-0.4,4.7
		C530.7,598.7,530.2,599.1,529.6,599.1z"/>
	<path fill="#FFEDE5" d="M525.6,606.9l-5.6-0.4c-0.5,0-0.8-0.4-0.8-0.9l0.7-9.4c0-0.5,0.4-0.8,0.9-0.8l5.6,0.4
		c0.5,0,0.8,0.4,0.8,0.9l-0.7,9.4C526.5,606.5,526.1,606.9,525.6,606.9z"/>
</g>
</svg>
