<?xml version="1.0" encoding="utf-8"?>
<!-- Generator: Adobe Illustrator 18.0.0, SVG Export Plug-In . SVG Version: 6.00 Build 0)  -->
<!DOCTYPE svg PUBLIC "-//W3C//DTD SVG 1.1//EN" "http://www.w3.org/Graphics/SVG/1.1/DTD/svg11.dtd">
<svg version="1.1" id="Layer_1" xmlns="http://www.w3.org/2000/svg" xmlns:xlink="http://www.w3.org/1999/xlink" x="0px" y="0px"
	 viewBox="14.5 965.8 594.1 80.3" enable-background="new 14.5 965.8 594.1 80.3" xml:space="preserve">
<polygon fill="#CF433B" points="14.8,991.2 14.5,1046.1 609.8,1034.8 606,965.8 "/>
<g>
	<path fill="#FFAA00" d="M141.7,1019.7l-11.5-16.7l7.6-0.3l6.5,9.7l0.8,2.9h0.2l0.6-3l5.4-10.1l6.9-0.3l-10.1,17.6l0.4,10l-6.4,0.2
		L141.7,1019.7z"/>
	<path fill="#FFAA00" d="M158.2,1015.5c-0.1-2.3,0.2-4.2,0.7-6c0.5-1.8,1.4-3.3,2.6-4.5c1.1-1.3,2.6-2.3,4.3-2.9
		c1.7-0.7,3.7-1.1,5.9-1.2c2.3-0.1,4.4,0.2,6.2,0.8c1.8,0.6,3.2,1.5,4.5,2.7c1.2,1.2,2.2,2.6,2.8,4.4c0.7,1.7,1.1,3.6,1.1,5.7
		c0.1,2.3-0.2,4.2-0.8,6s-1.4,3.3-2.6,4.5c-1.1,1.3-2.6,2.3-4.3,2.9c-1.7,0.7-3.6,1.1-5.8,1.2c-2.3,0.1-4.4-0.2-6.2-0.8
		c-1.8-0.6-3.2-1.5-4.5-2.7c-1.2-1.2-2.2-2.6-2.8-4.4C158.6,1019.5,158.3,1017.5,158.2,1015.5z M165,1015.2c0.1,1.4,0.2,2.6,0.6,3.7
		c0.3,1.1,0.8,2,1.4,2.8c0.6,0.8,1.4,1.4,2.3,1.8c0.9,0.4,2,0.6,3.2,0.5c2.3-0.1,4-0.8,5.3-2.3c1.2-1.4,1.7-3.8,1.7-7.1
		c-0.1-1.3-0.2-2.5-0.5-3.6c-0.3-1.1-0.8-2-1.4-2.9c-0.6-0.8-1.4-1.4-2.3-1.8c-0.9-0.5-2-0.6-3.3-0.5c-2.3,0.1-4,0.9-5.2,2.4
		C165.4,1009.7,164.9,1012,165,1015.2z"/>
	<path fill="#FFAA00" d="M208.1,999.9l6-0.2l0.7,17.4c0.1,1.7-0.2,3.3-0.7,4.6c-0.5,1.3-1.3,2.4-2.3,3.2c-1,0.9-2.2,1.5-3.6,2
		c-1.4,0.5-2.9,0.8-4.7,0.8c-4.1,0.2-7.2-0.5-9.4-2s-3.4-3.8-3.5-7l-0.8-18.1l6.4-0.2l0.7,17c0.1,2,0.7,3.5,1.7,4.3
		c1.1,0.8,2.6,1.1,4.5,1.1c1.9-0.1,3.3-0.5,4.2-1.4c0.9-0.9,1.3-2.3,1.2-4.3L208.1,999.9z"/>
	<path fill="#FFAA00" d="M219.6,999.7c0.7-0.2,1.4-0.2,2.3-0.4c0.8-0.2,1.7-0.2,2.5-0.3s1.7-0.2,2.4-0.2c0.8-0.1,1.5-0.1,2.2-0.2
		c1.5-0.1,3,0,4.5,0.2c1.5,0.2,2.9,0.5,4.1,1.1s2.2,1.3,2.9,2.3c0.8,1,1.2,2.2,1.2,3.7c0.1,2.3-0.5,4.1-1.7,5.6s-2.9,2.6-5,3.2
		l2.3,1.1l8,9.9l-7.5,0.3l-7.8-10.2l-3.4-0.3l0.5,11l-6.4,0.2L219.6,999.7z M229.6,1003.7c-0.7,0-1.3,0.1-2,0.1
		c-0.6,0.1-1.1,0.1-1.5,0.2l0.3,7.5l2.7-0.1c1.8-0.1,3.2-0.5,4.3-1.1c1.1-0.7,1.5-1.7,1.4-3.3c-0.1-1.1-0.5-2-1.4-2.6
		C232.6,1003.9,231.3,1003.6,229.6,1003.7z"/>
	<path fill="#FFAA00" d="M281.7,1002l-9.6,0.4l0.9,22.1l-6.4,0.2l-0.9-22.1l-9.6,0.4l-0.2-5l25.6-1.1L281.7,1002z"/>
	<path fill="#FFAA00" d="M282.4,1010.5c-0.1-2.3,0.2-4.2,0.7-6c0.5-1.8,1.4-3.3,2.6-4.5c1.1-1.3,2.6-2.3,4.3-2.9
		c1.7-0.7,3.7-1.1,5.9-1.2c2.3-0.1,4.4,0.2,6.2,0.8c1.8,0.6,3.2,1.5,4.5,2.7c1.2,1.2,2.2,2.6,2.8,4.4c0.7,1.7,1.1,3.6,1.1,5.7
		c0.1,2.3-0.2,4.2-0.8,6s-1.4,3.3-2.6,4.5c-1.1,1.3-2.6,2.3-4.3,2.9c-1.7,0.7-3.6,1.1-5.8,1.2c-2.3,0.1-4.4-0.2-6.2-0.8
		c-1.8-0.6-3.2-1.5-4.5-2.7c-1.2-1.2-2.2-2.6-2.8-4.4S282.5,1012.6,282.4,1010.5z M289.2,1010.3c0.1,1.4,0.2,2.6,0.6,3.7
		c0.3,1.1,0.8,2,1.4,2.8c0.6,0.8,1.4,1.4,2.3,1.8c0.9,0.4,2,0.6,3.2,0.5c2.3-0.1,4-0.8,5.3-2.3c1.2-1.4,1.7-3.8,1.7-7.1
		c-0.1-1.3-0.2-2.5-0.5-3.6c-0.3-1.1-0.8-2-1.4-2.9c-0.6-0.8-1.4-1.4-2.3-1.8c-0.9-0.5-2-0.6-3.3-0.5c-2.3,0.1-4,0.9-5.2,2.4
		C289.6,1004.8,289.1,1007.1,289.2,1010.3z"/>
	<path fill="#FFAA00" d="M314.7,1009.2l11.8-0.5l0.2,4.8l-11.8,0.5L314.7,1009.2z"/>
	<path fill="#FFAA00" d="M331.4,995c0.6-0.1,1.4-0.2,2.2-0.3c0.8-0.1,1.7-0.2,2.6-0.2c0.9-0.1,1.7-0.2,2.6-0.2
		c0.8-0.1,1.6-0.1,2.3-0.1c2.9-0.2,5.4,0.2,7.5,0.8c2.1,0.6,3.8,1.5,5.2,2.6c1.4,1.1,2.4,2.6,3,4.2c0.7,1.7,1.1,3.5,1.1,5.5
		c0.1,1.8-0.2,3.5-0.7,5.3c-0.5,1.7-1.4,3.3-2.7,4.7s-2.9,2.5-5,3.4c-2.1,0.9-4.7,1.4-7.8,1.5c-0.5,0-1.1,0-2,0.1
		c-0.8,0-1.7,0-2.6,0s-1.7,0-2.6,0c-0.8,0-1.4,0-1.8-0.1L331.4,995z M341.6,999.2c-0.7,0-1.4,0.1-2,0.1c-0.7,0.1-1.2,0.1-1.6,0.2
		l0.7,17.6c0.2,0,0.4,0,0.7,0c0.3,0,0.6,0,1,0c0.3,0,0.7,0,1,0s0.5,0,0.7,0c1.9-0.1,3.4-0.4,4.6-1c1.2-0.6,2.1-1.3,2.8-2.2
		c0.7-0.9,1.1-1.9,1.4-2.9c0.2-1.1,0.4-2.3,0.3-3.4c-0.1-1-0.2-2-0.5-2.9c-0.3-1.1-0.8-2-1.5-2.8c-0.7-0.8-1.7-1.5-2.9-2
		C344.9,999.4,343.4,999.1,341.6,999.2z"/>
	<path fill="#FFAA00" d="M361.2,1007.4c-0.1-2.3,0.2-4.2,0.7-6c0.5-1.8,1.4-3.3,2.6-4.5c1.1-1.3,2.6-2.3,4.3-2.9
		c1.7-0.7,3.7-1.1,5.9-1.2c2.3-0.1,4.4,0.2,6.2,0.8c1.8,0.6,3.2,1.5,4.5,2.7c1.2,1.2,2.2,2.6,2.8,4.4c0.7,1.7,1.1,3.6,1.1,5.7
		c0.1,2.3-0.2,4.2-0.8,6s-1.4,3.3-2.6,4.5c-1.1,1.3-2.6,2.3-4.3,2.9c-1.7,0.7-3.6,1.1-5.8,1.2c-2.3,0.1-4.4-0.2-6.2-0.8
		c-1.8-0.6-3.2-1.5-4.5-2.7c-1.2-1.2-2.2-2.6-2.8-4.4C361.7,1011.4,361.3,1009.5,361.2,1007.4z M368,1007.1c0.1,1.4,0.2,2.6,0.6,3.7
		c0.3,1.1,0.8,2,1.4,2.8c0.6,0.8,1.4,1.4,2.3,1.8c0.9,0.4,2,0.6,3.2,0.5c2.3-0.1,4-0.8,5.3-2.3c1.2-1.4,1.7-3.8,1.7-7.1
		c-0.1-1.3-0.2-2.5-0.5-3.6s-0.8-2-1.4-2.9c-0.6-0.8-1.4-1.4-2.3-1.8c-0.9-0.5-2-0.6-3.3-0.5c-2.3,0.1-4,0.9-5.2,2.4
		C368.4,1001.6,367.9,1004,368,1007.1z"/>
	<path fill="#FFAA00" d="M426.5,1018.4l-20.9,0.8l-1.1-27.1l6.4-0.2l0.9,22.1l14.5-0.6L426.5,1018.4z"/>
	<path fill="#FFAA00" d="M431.2,994.2l-3.5,0.2l-0.2-3.1l13.3-0.5l0.2,3.1l-3.5,0.2l0.8,20.9l3.5-0.2l0.2,3.1l-13.3,0.5l-0.2-3.1
		l3.5-0.2L431.2,994.2z"/>
	<path fill="#FFAA00" d="M460.5,1009.6c0-0.8-0.5-1.4-1.2-1.9s-1.7-0.8-2.9-1.2c-1.1-0.4-2.3-0.7-3.7-1.1c-1.3-0.3-2.6-0.8-3.7-1.4
		c-1.1-0.6-2.1-1.4-2.9-2.3s-1.2-2.2-1.3-3.8c-0.1-1.4,0.2-2.6,0.7-3.6c0.5-1.1,1.2-1.9,2.2-2.6c0.9-0.7,2.1-1.2,3.5-1.7
		c1.4-0.4,2.9-0.6,4.5-0.7c1.9-0.1,3.7,0,5.4,0.2s3.2,0.6,4.3,1.1l-1.8,4.9c-0.4-0.2-0.8-0.3-1.4-0.5c-0.5-0.2-1.1-0.3-1.9-0.5
		c-0.7-0.2-1.4-0.2-2.3-0.2c-0.8-0.1-1.6-0.1-2.4-0.1c-1.4,0.1-2.6,0.3-3.3,0.8c-0.8,0.5-1.1,1.1-1.1,2c0,0.8,0.5,1.4,1.2,1.9
		c0.8,0.5,1.7,0.8,2.9,1.2c1.1,0.4,2.3,0.7,3.7,1.1c1.3,0.4,2.6,0.8,3.7,1.4c1.1,0.6,2.1,1.4,2.9,2.3c0.8,0.9,1.2,2.1,1.3,3.6
		c0.1,1.5-0.2,2.8-0.7,3.9c-0.5,1.1-1.3,2-2.3,2.8s-2.3,1.4-3.7,1.7c-1.4,0.4-3.1,0.6-4.8,0.7c-1.2,0.1-2.3,0-3.4-0.1
		c-1.1-0.1-2-0.2-2.9-0.3c-0.9-0.2-1.7-0.3-2.4-0.5c-0.7-0.2-1.2-0.3-1.7-0.5l2-4.9c0.3,0.2,0.8,0.3,1.4,0.5
		c0.6,0.2,1.2,0.3,1.9,0.5s1.4,0.2,2.3,0.3c0.8,0.1,1.6,0.1,2.4,0.1c1.9-0.1,3.3-0.4,4.3-0.9
		C460.1,1011.4,460.5,1010.6,460.5,1009.6z"/>
	<path fill="#FFAA00" d="M493.9,993.6l-9.6,0.4l0.9,22.1l-6.4,0.2l-0.9-22.1l-9.6,0.4l-0.2-5l25.6-1.1L493.9,993.6z"/>
</g>
</svg>
