<?xml version="1.0" encoding="utf-8"?>
<!-- Generator: Adobe Illustrator 22.0.0, SVG Export Plug-In . SVG Version: 6.00 Build 0)  -->
<svg version="1.1" id="Layer_1" xmlns="http://www.w3.org/2000/svg" xmlns:xlink="http://www.w3.org/1999/xlink" x="0px" y="0px"
	 viewBox="0 0 595.3 502.1" style="enable-background:new 0 0 595.3 502.1;" xml:space="preserve">
<style type="text/css">
	.st0{fill:#EAC3B5;}
	.st1{fill:#F2D4C7;}
	.st2{fill:#FFEDE5;}
	.st3{fill:#C95B5E;}
	.st4{fill:#FDECE5;}
</style>
<g>
	<g>
		<g>
			<path class="st0" d="M97,450.3c0,0-4.9,29.5,3.2,37.7c7.9,7.9,400.9-1.3,402.9-4.9c5.5-10.6,0-35.4,0-35.4l-383.3,2.7L97,450.3
				L97,450.3z"/>
			<g>
				<path class="st1" d="M254.4,353.3C254.6,353.3,254.6,353.3,254.4,353.3C254.6,353.3,254.6,353.3,254.4,353.3z"/>
				<path class="st1" d="M249.2,353.5c1.8-0.1,3.4-0.1,5.2-0.2C252.7,353.3,250.9,353.5,249.2,353.5z"/>
				<path class="st1" d="M247.5,353.6c0.6,0,1.3,0,1.9-0.1C248.7,353.5,248.1,353.6,247.5,353.6z"/>
				<path class="st1" d="M273.1,352.7c0.2,0,0.5,0,0.7,0C273.6,352.7,273.3,352.7,273.1,352.7z"/>
				<path class="st1" d="M273.8,352.7c2.1-0.1,4-0.1,6.2-0.2C277.7,352.6,275.6,352.6,273.8,352.7z"/>
				<path class="st1" d="M242.5,353.7c1.8-0.1,3.2-0.1,4.9-0.2C245.8,353.6,244,353.7,242.5,353.7z"/>
				<path class="st1" d="M254.6,353.3c6-0.2,12.2-0.4,18.5-0.6C266.7,353,260.6,353.2,254.6,353.3z"/>
				<path class="st1" d="M214.5,388.3c0.2-0.1,0.5-0.1,0.6-0.2C214.9,388.2,214.8,388.3,214.5,388.3z"/>
				<path class="st1" d="M279.9,352.6c0.1,0,0.3,0,0.4,0C280.1,352.6,280,352.6,279.9,352.6z"/>
				<path class="st1" d="M214.4,388.3L214.4,388.3L214.4,388.3C214.5,388.3,214.4,388.3,214.4,388.3z"/>
				<path class="st1" d="M214.2,354.5c6.5-0.2,13.7-0.4,21-0.6C227.9,354.2,220.7,354.4,214.2,354.5z"/>
				<path class="st1" d="M235.2,354c0.9,0,1.9-0.1,2.8-0.1C237,353.8,236.2,353.8,235.2,354z"/>
				<path class="st1" d="M237.8,353.8c1,0,2.2-0.1,3.3-0.1C240.1,353.8,239.1,353.8,237.8,353.8z"/>
				<path class="st1" d="M241.2,353.8c0.4,0,0.9,0,1.1,0C242.1,353.7,241.6,353.8,241.2,353.8z"/>
				<path class="st1" d="M385.6,428.3c0,0-158.2,1.4-165,0s-3.7-32.6-3.7-32.6l-2.4-7.4c-0.9,0.2-1.8,0.3-2.6,0.3
					c-6.3,0-11.6-4.6-12.6-10.7c-5.7-2.5-18.1-9.1-27.1-22.2c-7.4,0.2-11.6,0.4-11.6,0.4c-7.5,0-15.2,0.6-26.1,8.9
					c-11,8.3-48.2,85.3-34.8,95.9c10.7,13.4,398.8,12,403.4-10.6c2.7-10.2-37.9-100.4-49.5-101.7c-1.5-0.2-7.7-0.2-17-0.1
					c-7.2,10.2-19.5,24.8-33.8,29.6c-0.7,5.2-4.2,11.1-9.6,12.1C393.2,390.3,398.9,428.3,385.6,428.3z M192.3,447.6
					c-28.3,7.2-41.9-11.7-45.1-19.4c-3-7.8-10-24.8,5.8-37.5c0,0,17.3-13.7,39.6-1.8C211.2,399.1,220.5,440.5,192.3,447.6z"/>
				<path class="st1" d="M387.8,349.6c0.1,0,0.1,0,0.2,0C388,349.6,388,349.6,387.8,349.6z"/>
				<path class="st1" d="M312.8,351.6c0.1,0,0.1,0,0.2,0H312.8z"/>
				<path class="st1" d="M313,351.6c4.3-0.1,8.6-0.2,12.8-0.4C321.6,351.4,317.4,351.5,313,351.6z"/>
				<path class="st1" d="M325.8,351.2c0.1,0,0.3,0,0.4,0C326.1,351.2,325.9,351.2,325.8,351.2z"/>
				<path class="st1" d="M280.3,352.6c10.7-0.3,21.6-0.6,32.6-0.9C301.9,352,291.1,352.3,280.3,352.6z"/>
				<path class="st1" d="M358.3,350.4c10.3-0.3,20.4-0.6,29.6-0.9C378.5,349.9,368.6,350.1,358.3,350.4z"/>
				<path class="st1" d="M358.1,350.4C358.1,350.4,358.3,350.4,358.1,350.4C358.3,350.4,358.1,350.4,358.1,350.4z"/>
				<path class="st1" d="M326.2,351.2c10.8-0.3,21.6-0.6,31.9-0.9C347.8,350.7,337.1,350.9,326.2,351.2z"/>
			</g>
			<g>
				<path class="st2" d="M375.6,76.5c-7.4,2.2-9.7,5.7-9.7,5.7c16.1,12.8,10.6,35.9,10.6,35.9c-16.9-11.8-46.7-14.8-46.7-14.8
					c14,13.9,8.1,48,8.1,48c-28.1,1.5-63.3-36.2-63.3-36.2c-9.8,17.9-40.5,33.2-40.5,33.2c-11.8-15.9-10-50.2-10-50.2
					c-15.1-0.5-35.7,2.6-50.1,5.2c-31.9,29.3-51.8,70.2-51.8,115.4c0,31.7,9.7,61.3,26.6,86.3c-2.7-30.8,11.1-46.7,11.1-46.7
					l11.3,5.5c0,0-10,13.5-9.6,38.2c0.2,9.8,2.4,18,4.6,24.2c9.8,10.2,21,19.3,33.1,26.9l4-0.1c-6.5-24-17.3-67.9-9.4-79.3
					c11.1-15.6,197.6-12.2,208.7,0c5.8,6.3,3.3,40-0.4,70.3c14.2-10.8,26.6-23.7,36.6-38.2c0.4-10-0.7-25.9-8.5-40.2l11.1-5.8
					c0,0,6.3,6.7,9.6,24.9c9.7-20.2,15.2-42.7,15.2-66.3C466.2,157,429.5,103.8,375.6,76.5z"/>
				<path class="st2" d="M282.6,50.4c0,0-5.2-24.1-20.5-30.6c0,0,19.5-8.7,28.1-6.8c8.5,1.9,12.5,34.9,12.5,34.9S345,30.8,373.5,46
					c0,0-32.7,13.3-41.5,28.1c0,0,16.4,5.3,25,11.8c8.7,6.5,13.4,19.1,13.4,19.1S335,86.7,309.1,89.5c0,0,19.7,23.9,22,47.3
					c0,0-25.7-7-36-18.8c-10.3-11.7-12.2-19.9-17.6-22.3c0,0-28.8,33.1-38,34.8c0,0-7.4-17.1,5.3-42.8c0,0-37.3,0.4-50.2,4
					c0,0,9.2-23.9,53-29.7c0,0-21.5-16.1-36-15.1C211,46.8,236.2,26.3,282.6,50.4z"/>
				<circle class="st3" cx="379.7" cy="217.7" r="10.6"/>
				<circle class="st3" cx="204.6" cy="217.7" r="10.6"/>
				<g>
					<path class="st3" d="M294.7,242.8c-0.1,0-0.2,0-0.4,0c-4.6-0.1-7.4-2.5-8.9-4.2c-1.6-2-2.1-4-2.1-4l1.8-0.4
						c0.1,0.3,1.8,6.8,9.3,6.9c3.1,0.1,5.7-1.3,7.2-4c1.3-2.2,1.6-4.3,1.6-4.5l1.8,0.2C304.9,233.1,303.5,242.8,294.7,242.8z"/>
				</g>
				<path class="st2" d="M212.2,367.9c-3.3,0-6.2,2-7.8,4.9c-5-2-11.1-5.4-17.1-10.6c-8.5-6.9-19.9-19.5-26.3-38.8
					c-11.3-34.1,1.4-53.9,1.5-54.1l-2.6-1.8c-0.6,0.9-13.7,21-1.9,56.4c9.5,28.5,30.8,45.7,45.7,51.3c0,0.2,0,0.4,0,0.5
					c0,4.6,3.7,8.4,8.4,8.4c4.6,0,8.4-3.7,8.4-8.4C220.6,371.7,216.8,367.9,212.2,367.9z"/>
				<path class="st2" d="M439.5,323.4c11.3-34.1-1.4-53.9-1.5-54.1l2.6-1.8c0.6,0.9,13.7,21,1.9,56.4c-9.5,28.5-30.8,45.7-45.7,51.3
					c0,0.2,0,0.4,0,0.5c0,4.6-3.7,8.4-8.4,8.4s-8.4-3.7-8.4-8.4c-0.1-4.1,3.8-7.9,8.4-7.9c3.3,0,6.2,2,7.8,4.9
					C396.2,372.7,429.8,357.1,439.5,323.4z"/>
			</g>
			<g>
				<path class="st2" d="M384.2,421.9H224.5c-2.1,0-3.7-1.8-3.7-3.7v-15.5c0-2.1,1.8-3.7,3.7-3.7h159.6c2.1,0,3.7,1.8,3.7,3.7v15.5
					C387.8,420.1,386.1,421.9,384.2,421.9z"/>
				<path class="st2" d="M385.3,393.8H223.2c0,0-30.3-94.6-19.3-113.6c4.7-8.1,179.6-8.1,190.7-1.8
					C403.2,283.5,385.3,393.8,385.3,393.8z"/>
				<g>
					<path class="st3" d="M307.9,325.9c-0.9-0.4-2.2-1.8-2.2-1.8s0.9,0.2,2.4,0c1.3-0.2,2.1-1.5,2.1-1.5s-1,0.3-2.5,0.3
						s-3.2-0.6-3.2-0.6c0.9-1.4,3-2.2,3-2.2s-0.9-0.4-2.8-0.1c-1.3,0.2-2.5,0.9-3,1.5c0.1-0.6,0.2-1.6,0.2-2.6c0-2-0.5-3.1-0.5-3.1
						c-1.4-0.2-2.5,1-2.5,1s0.6,0.5,0.9,1.6c0.3,0.7,0.4,2.1,0.5,3c-3-1.9-6.2-1.9-6.2-1.9c1.3,0.6,1.9,3,1.9,3c-1.9,0.6-6,0-6,0
						s0.1,0.4,1.6,1.6c1.5,1.1,4,0.3,4,0.3s-0.6,0.5-0.9,1.9s0.3,2.1,0.3,2s0.6-1.1,1.8-2.1c1-0.9,2.8-1,2.8-1c0.7,3.4,3.9,4,3.9,4
						s0.1-0.7,0.1-1.4c0-0.7-0.9-2.9-0.9-2.9s1.6,1.5,3.1,2c1.8,0.5,4.1,0.6,4.1,0.6S309.2,326.1,307.9,325.9z"/>
					<path class="st3" d="M317.5,333.8c-1.6-5-4.7-7.9-7.9-9.4c-0.5,0.4-0.9,0.5-0.9,0.5c1.8,0.9,2,3.1,2,3.1
						c-3.2,0.4-6.5-0.9-6.5-0.9c0.1,1.9-0.9,3-0.9,3c-2.8-0.6-5-3.7-5-3.7c-1.5,0.4-3.3,3-3.3,3c-1.9-1.8-0.9-4.1-0.9-4.1
						c-1.8,0.2-3.3-0.3-4.5-0.7c-5.7,3.4-8.5,9.8-7.4,15.5c1.9,8.7,10.5,15.3,22.2,13.7C316.1,352.3,321,345.5,317.5,333.8z"/>
				</g>
			</g>
			<path class="st2" d="M204.1,419c0,0-12-4.5-24.2-1.6c-12.2,3-23.1,13.4-23.1,13.4c3,3.8,9.6,16.6,31.3,11.6
				C209.7,437.2,204.1,419,204.1,419z M181.1,437.9l-5.9-15.6c0,0,4.9-4.1,10.5-4l7.2,15C192.7,433.3,186.5,438.8,181.1,437.9z"/>
			<path class="st2" d="M154.3,428.3c0,0,11.2-10.6,24.3-14c13.4-3.3,25.2,2.4,25.2,2.4s-6.2-30.6-33.8-26.7
				C142.5,393.7,150,422.1,154.3,428.3z"/>
			<path class="st2" d="M178.2,424.4c0,0,3.2-2.8,6.8-2.7l4.8,9.8c0,0-4.1,3.5-7.8,3.1L178.2,424.4z"/>
		</g>
		<path class="st1" d="M398.9,349.4c-0.4,4.1-1,9.4-1.6,15.1l0,0c0.7,0.6,1.3,1.1,1.9,1.9c4-2,12.8-7.2,19.4-17.4
			C412.7,349.1,405.9,349.2,398.9,349.4L398.9,349.4z"/>
		<path class="st1" d="M204.1,354.9c-6.8,0.2-13.3,0.4-18.7,0.6c4,3.8,10.7,9.4,17.1,11.7c1.1-1.3,2.8-2.5,4.3-3.1l0,0L204.1,354.9z
			"/>
	</g>
</g>
<g>
	<g>
		<path class="st4" d="M476.6,91.8l15.7,12.6c0,0,9.6-5.4,14.2-5.7c4.5-0.3,19.9-3.6,26-9.6c6.2-6,10.6-19.9,9-29
			s-10.9-27.5-33.9-27.5c-23,0-32.5,23.7-32.5,27.5c0,3.9,2.8,18.7,3.4,21.1C479.3,83.7,476.6,91.8,476.6,91.8z"/>
		<path class="st4" d="M486.6,111.1l-15.7-12.4c-0.6-0.5-0.7-1.3-0.2-1.9l1.5-1.9c0.5-0.6,1.3-0.7,1.9-0.2l15.7,12.5
			c0.6,0.5,0.7,1.3,0.2,1.9l-1.5,1.9C488.2,111.6,487.2,111.6,486.6,111.1z"/>
		<g>
			<path class="st4" d="M491.5,105.6c-0.4-0.2-0.7-0.3-1-0.6l-13.7-10.8c-1.6-1.3-2-3.7-0.9-5.5c0.3-0.6,1.8-4.5,0.4-11.2
				c-0.2-1.1-0.6-2.5-0.9-3.6c-1.9-7.4-4.5-16.5,5.9-29.7c7.5-9.6,25.5-16.1,40.5-10.3c6,2.4,11,6.2,15.1,11.9
				c7.4,10.3,9.1,20.7,5.1,31.1c-3.6,9.2-10.5,15.1-12.7,16.7c-4.7,3.6-10.9,4.6-17,5.6c-6.2,0.9-12,1.9-16,5.6
				C494.8,105.7,493.1,106.2,491.5,105.6z M520.4,36.6c-13.7-5.2-30.3,0.6-37,9.4c-9.4,12.1-7.2,20.1-5.4,27.1
				c0.3,1.3,0.7,2.6,0.9,3.7c1.8,8.5-0.6,13.2-0.7,13.3l-0.1,0.2c-0.3,0.5-0.3,1,0.2,1.4l13.7,10.8c0.5,0.3,1,0.3,1.4-0.2l0.1-0.2
				c4.6-4.4,11.2-5.4,17.6-6.3c5.6-0.9,11.6-1.9,15.6-5c2.6-1.9,24.1-19.6,7-43.7C530.6,42.3,525.9,38.8,520.4,36.6z"/>
		</g>
		<path class="st4" d="M482.8,116.2l-15.6-12.4c-0.6-0.5-0.7-1.3-0.2-1.9l1.5-1.9c0.5-0.6,1.3-0.7,1.9-0.2l15.7,12.5
			c0.6,0.5,0.7,1.3,0.2,1.9l-1.5,1.9C484.2,116.4,483.2,116.6,482.8,116.2z"/>
		<path class="st4" d="M478.8,121.3l-15.7-12.5c-0.6-0.5-0.7-1.3-0.2-1.9l1.5-1.9c0.5-0.6,1.3-0.7,1.9-0.2l15.7,12.5
			c0.6,0.5,0.7,1.3,0.2,1.9l-1.5,1.9C480.1,121.7,479.3,121.7,478.8,121.3z"/>
		<g>
			<path class="st3" d="M486.4,94.8l-0.9-1.3c1.3-0.9,3.9-3.1,5.5-5.2c-2.5-0.2-4.7-1.1-6.1-2.7c-1.5-1.8-1.9-4-0.9-6.3
				c1-2.7,3-2.7,4.1-2.7c3.1,0.6,6.3,5,6.4,8c0,0.5-0.1,0.9-0.2,1.5c3.5-1,5.4-3.6,6-6.9c-1.1,0.1-2.6-0.1-4-0.7
				c-2.6-1.1-5.4-3.9-5.5-7.1c-0.1-2,1-3.6,3.1-3.9c3-0.4,6.6,1.9,7.8,6.3c0.2,0.9,0.3,1.5,0.4,2.4c2.1-2.6,0.6-7.7-0.1-9.9
				c-1.1-3.6,5.9-9.2,7.5-10.2l1,1.4c-3.1,2.5-7.4,6.4-6.9,8.2c0.9,2.7,2.9,9.2-1,12.3c-0.2,0.1-0.4,0.2-0.6,0.4
				c-0.3,4.5-3,7.8-7.6,9.2c-0.4,0.1-0.9,0.2-1.3,0.3C491,91.3,486.9,94.3,486.4,94.8z M487.8,78.5c-0.2,0-0.3-0.1-0.5-0.1
				c-0.6-0.1-1.3-0.1-2,1.4c-0.9,2-0.1,3.6,0.7,4.5c1.3,1.4,3.7,2.5,5.9,2.4c0.3-0.6,0.5-1.1,0.5-1.8
				C492.1,82.3,490,79.2,487.8,78.5z M495.6,69.7c-0.7-0.2-1.3-0.3-1.9-0.3c-0.7,0.1-1.6,0.5-1.6,1.9c0.2,2.5,2.5,4.6,4.5,5.6
				c1.1,0.5,2.5,0.7,3.2,0.5c0-0.9-0.2-1.9-0.4-3C498.9,71.9,497.2,70.2,495.6,69.7z"/>
		</g>
	</g>
</g>
<g>
	<path class="st4" d="M439.7,60.1c0,0,20.6-0.2,22,1.9c1.4,2.2-17.8,9.6-20.1,8.6C439.4,69.6,435.1,61.4,439.7,60.1z"/>
	<path class="st4" d="M456.6,21.4c0,0,15.1,14.7,14.6,17.2s-19.9-5.7-20.7-8.2C449.4,28.1,452.2,19,456.6,21.4z"/>
	<path class="st4" d="M491.8,3.1c0,0-0.4,19.4-2.6,20.6c-2.1,1.3-8.6-17.1-7.7-19.2C482.8,2.5,490.6-1.4,491.8,3.1z"/>
	<path class="st4" d="M569.5,46.7c0,0-18.8,5.4-20.6,3.7c-1.9-1.6,14-13.2,16.2-12.8C567.5,37.9,573.6,44.6,569.5,46.7z"/>
	<path class="st4" d="M562,94.8c0,0-15.2-12.1-15.1-14.6c0.2-2.5,18.8,3.5,20.1,5.6C568,87.8,566.3,96.5,562,94.8z"/>
	<path class="st4" d="M532,126.2c0,0-5.4-18.7-3.7-20.6c1.6-1.9,13.3,13.8,12.8,16.2C540.9,124.1,534.6,130.1,532,126.2z"/>
	<path class="st4" d="M502.6,129.6c0,0,4.5-18.9,6.7-19.8c2.5-0.9,4.9,18.6,3.5,20.4C511.4,132.3,502.8,134.1,502.6,129.6z"/>
	<path class="st4" d="M537.2,6.2c0,0-8.7,17.3-11.2,17.7s-0.5-19.1,1.3-20.6C529.3,1.8,538.2,1.8,537.2,6.2z"/>
</g>
</svg>
